<svg version="1.1" id="Layer_1" xmlns="http://www.w3.org/2000/svg" xmlns:xlink="http://www.w3.org/1999/xlink" x="0px" y="0px"
	 width="100%" viewBox="0 0 2825 1309" enable-background="new 0 0 2825 1309" xml:space="preserve">
<path fill="#FFFFFF" opacity="1.000000" stroke="none" 
	d="
M1087.000000,1310.000000 
	C914.979126,1310.000000 742.958191,1310.000000 570.468628,1309.531372 
	C570.000000,1192.810913 570.000000,1076.558960 570.000000,959.774536 
	C541.633484,959.774536 513.910095,959.774536 486.258301,959.774536 
	C486.258301,921.305847 486.258301,883.371460 486.258301,845.500000 
	C582.852539,845.500000 679.188477,845.500000 775.710144,845.500000 
	C775.710144,732.138550 775.710144,618.756897 775.710144,504.416321 
	C679.082703,504.416321 582.745728,504.416321 486.326019,504.416321 
	C486.326019,454.405060 486.326019,405.353516 486.326019,356.380310 
	C540.704468,356.380310 594.756104,356.380310 649.162598,356.380310 
	C649.162598,383.695679 649.162598,410.632355 649.162598,437.691406 
	C780.234009,437.691406 910.948120,437.691406 1042.000000,437.691406 
	C1042.000000,291.922058 1042.000000,146.461029 1042.000000,1.000000 
	C1056.687622,1.000000 1071.375122,1.000000 1086.531372,1.468657 
	C1087.000000,119.857536 1087.000000,237.777756 1087.000000,356.230469 
	C1117.371582,356.230469 1147.094849,356.230469 1176.750244,356.230469 
	C1176.750244,557.691040 1176.750244,758.617859 1176.750244,960.078247 
	C1146.782471,960.078247 1117.059204,960.078247 1087.000000,960.078247 
	C1087.000000,1077.074463 1087.000000,1193.537231 1087.000000,1310.000000 
z"/>
<path fill="#B7872D" opacity="1.000000" stroke="none" 
	d="
M2284.000000,1.000000 
	C2464.580566,1.000000 2645.160889,1.000000 2826.000000,1.000000 
	C2826.000000,119.023956 2826.000000,237.048096 2825.531250,355.536133 
	C2796.137207,356.000000 2767.211914,356.000000 2738.000000,356.000000 
	C2738.000000,358.805695 2738.000000,360.950195 2738.000000,363.094727 
	C2738.000000,592.910278 2738.000244,822.725830 2738.000000,1052.541382 
	C2738.000000,1053.874634 2738.144287,1055.229126 2737.952637,1056.534302 
	C2737.794922,1057.606445 2737.484619,1058.827515 2736.814941,1059.622925 
	C2734.053711,1062.901123 2731.191406,1066.099976 2728.255615,1069.224121 
	C2717.020508,1081.179932 2705.752930,1093.105347 2694.477783,1105.023560 
	C2682.401367,1117.788574 2670.289062,1130.519531 2658.217773,1143.289185 
	C2647.290527,1154.848511 2636.412598,1166.454346 2625.485352,1178.013794 
	C2613.414062,1190.783569 2601.297607,1203.510986 2589.226318,1216.280518 
	C2578.299072,1227.839966 2567.454346,1239.477295 2556.486816,1250.997803 
	C2541.498291,1266.741577 2526.395020,1282.375854 2511.416992,1298.129028 
	C2507.792236,1301.941284 2504.464355,1306.035400 2501.000000,1310.000000 
	C2342.975830,1310.000000 2184.951904,1310.000000 2026.369263,1309.674438 
	C2017.267822,1300.127563 2008.796265,1290.838745 2000.165283,1281.700439 
	C1986.729126,1267.474487 1973.181396,1253.353760 1959.686523,1239.183228 
	C1946.536133,1225.374512 1933.399292,1211.553101 1920.244141,1197.748901 
	C1906.399780,1183.221191 1892.534668,1168.712891 1878.690308,1154.185181 
	C1865.535400,1140.380859 1852.422974,1126.535889 1839.241943,1112.756592 
	C1823.182251,1095.968018 1807.145264,1079.156128 1790.908569,1062.539917 
	C1788.150635,1059.717651 1786.906738,1057.055786 1786.908447,1053.043701 
	C1787.011108,822.934814 1787.000000,592.825989 1787.000000,362.717102 
	C1787.000000,360.607208 1787.000000,358.497314 1787.000000,355.869080 
	C1758.060669,355.869080 1729.674316,355.869080 1701.000000,355.869080 
	C1701.000000,237.227432 1701.000000,119.113716 1701.000000,1.000000 
	C1879.024048,1.000000 2057.048096,1.000000 2235.536133,1.468657 
	C2236.000000,119.846703 2236.000000,237.756088 2236.000000,356.196411 
	C2217.662109,356.196411 2199.937500,356.196411 2182.381104,356.196411 
	C2182.381104,557.755005 2182.381104,758.781433 2182.381104,959.748657 
	C2236.691406,959.748657 2290.620117,959.748657 2344.731689,959.748657 
	C2344.731689,758.470886 2344.731689,557.444641 2344.731689,355.886902 
	C2324.413330,355.886902 2304.356689,355.886902 2284.000000,355.886902 
	C2284.000000,237.237106 2284.000000,119.118553 2284.000000,1.000000 
M2475.587158,1266.664307 
	C2492.102295,1249.345581 2508.600098,1232.010498 2525.136719,1214.712402 
	C2549.840332,1188.871582 2574.571533,1163.057373 2599.289551,1137.230469 
	C2620.558594,1115.007446 2641.839844,1092.796509 2663.086182,1070.551880 
	C2673.752686,1059.383789 2684.352783,1048.152588 2695.404297,1036.796997 
	C2695.701416,1036.608643 2695.795898,1036.347168 2695.877441,1035.091675 
	C2695.918213,951.643250 2695.984131,868.194885 2695.994385,784.746460 
	C2696.013428,630.007385 2695.999512,475.268341 2696.006348,320.529297 
	C2696.006348,318.366638 2696.100830,316.204010 2696.510010,313.860474 
	C2696.750732,313.725098 2696.934814,313.534882 2697.986328,313.200775 
	C2726.243896,313.200775 2754.501465,313.200775 2783.165527,313.200775 
	C2783.165527,310.291260 2783.165283,308.153870 2783.165283,306.016479 
	C2783.165283,230.355530 2783.159912,154.694595 2783.171143,79.033653 
	C2783.172852,67.369545 2783.251465,55.705456 2783.546875,43.752861 
	C2783.323242,43.529449 2783.099854,43.306038 2781.956787,43.017059 
	C2633.143066,43.011501 2484.329346,43.005581 2335.515625,43.006905 
	C2334.352051,43.006916 2333.188477,43.105522 2331.537598,43.185944 
	C2331.190918,43.382755 2331.097168,43.663944 2331.156250,44.957382 
	C2331.145508,133.132156 2331.134277,221.306915 2331.129395,309.481689 
	C2331.129395,310.311615 2331.211914,311.141510 2331.199219,312.481812 
	C2331.469971,312.647644 2331.740967,312.813477 2332.938477,313.125671 
	C2350.933105,313.212463 2368.927490,313.299255 2387.084229,313.679688 
	C2387.223145,313.863220 2387.399902,313.996307 2387.776855,314.991302 
	C2387.796143,315.990845 2387.832031,316.990387 2387.832275,317.989929 
	C2387.834473,535.809998 2387.834717,753.630005 2387.828125,971.450073 
	C2387.828125,972.947510 2387.732178,974.445007 2387.338623,976.226013 
	C2387.141357,976.463806 2387.036865,976.737061 2386.694824,977.620117 
	C2379.241455,985.413269 2371.880371,993.298645 2364.246094,1000.910217 
	C2362.944580,1002.207886 2360.474854,1002.912903 2358.543213,1002.916016 
	C2294.800049,1003.017578 2231.056641,1003.022644 2167.313477,1002.897339 
	C2165.274170,1002.893372 2162.707520,1001.898376 2161.288818,1000.469604 
	C2153.692871,992.818787 2146.383789,984.883240 2138.887939,976.608887 
	C2138.775635,976.320557 2138.585938,976.098206 2138.207520,975.019470 
	C2138.193848,974.353027 2138.168213,973.686646 2138.168213,973.020203 
	C2138.166260,754.867493 2138.165527,536.714783 2138.174805,318.562042 
	C2138.175049,317.067322 2138.312500,315.572632 2138.679932,313.916016 
	C2138.862793,313.776337 2138.996094,313.599365 2139.991943,313.223511 
	C2156.320068,313.143036 2172.647949,313.062531 2189.661377,312.484131 
	C2189.774170,311.499939 2189.985596,310.515778 2189.985840,309.531525 
	C2190.000977,222.071320 2190.004395,134.611099 2189.954590,47.150906 
	C2189.953613,45.810303 2189.271484,44.470089 2187.986572,43.026943 
	C2040.364868,43.018810 1892.743042,43.010571 1745.121338,43.005836 
	C1744.455688,43.005817 1743.790039,43.055798 1742.738892,43.126640 
	C1742.640015,43.207703 1742.447144,43.307964 1742.458984,43.366486 
	C1742.506470,43.598457 1742.617798,43.817379 1742.797852,44.967827 
	C1742.797852,134.222351 1742.797852,223.476868 1742.797852,313.290131 
	C1772.012939,313.290131 1800.476318,313.290131 1829.172241,313.616791 
	C1829.371216,313.800629 1829.596680,313.942230 1829.968506,314.966675 
	C1829.979004,317.132690 1829.998657,319.298706 1829.998779,321.464722 
	C1830.000122,557.576904 1830.000122,793.689087 1830.000000,1029.801270 
	C1830.000000,1031.134277 1829.811646,1032.502808 1830.052734,1033.790771 
	C1830.313599,1035.185425 1830.635620,1036.804810 1831.519531,1037.806885 
	C1836.020508,1042.909302 1840.639404,1047.913208 1845.350342,1052.823730 
	C1860.295044,1068.401733 1875.358521,1083.866211 1890.265869,1099.479980 
	C1911.187378,1121.392944 1931.964966,1143.443237 1952.891602,1165.351318 
	C1965.542480,1178.595825 1978.398560,1191.643799 1991.091797,1204.848022 
	C2011.039307,1225.598999 2030.927124,1246.407104 2051.500732,1267.730957 
	C2052.657471,1267.820557 2053.814453,1267.988892 2054.971191,1267.989014 
	C2193.431885,1268.000854 2331.892578,1268.003296 2470.353271,1267.959351 
	C2471.909424,1267.958862 2473.465820,1267.344116 2475.587158,1266.664307 
z"/>
<path fill="#B7872D" opacity="1.000000" stroke="none" 
	d="
M1041.531372,1.000000 
	C1042.000000,146.461029 1042.000000,291.922058 1042.000000,437.691406 
	C910.948120,437.691406 780.234009,437.691406 649.162598,437.691406 
	C649.162598,410.632355 649.162598,383.695679 649.162598,356.380310 
	C594.756104,356.380310 540.704468,356.380310 486.326019,356.380310 
	C486.326019,405.353516 486.326019,454.405060 486.326019,504.416321 
	C582.745728,504.416321 679.082703,504.416321 775.710144,504.416321 
	C775.710144,618.756897 775.710144,732.138550 775.710144,845.500000 
	C679.188477,845.500000 582.852539,845.500000 486.258301,845.500000 
	C486.258301,883.371460 486.258301,921.305847 486.258301,959.774536 
	C513.910095,959.774536 541.633484,959.774536 570.000000,959.774536 
	C570.000000,1076.558960 570.000000,1192.810913 570.000000,1309.531372 
	C380.423645,1310.000000 190.847305,1310.000000 1.000000,1310.000000 
	C1.000000,1193.645874 1.000000,1077.291626 1.437362,960.468628 
	C31.527754,959.495850 61.180782,958.991699 90.682297,958.490051 
	C90.682297,757.917664 90.682297,557.618469 90.682297,357.000000 
	C60.577160,357.000000 30.788580,357.000000 1.000000,357.000000 
	C1.000000,238.370483 1.000000,119.740974 1.000000,1.000000 
	C347.687561,1.000000 694.375183,1.000000 1041.531372,1.000000 
M526.070618,1003.035461 
	C498.394196,1002.973145 470.717773,1002.910828 442.860565,1002.489868 
	C442.725311,1002.249146 442.535095,1002.065369 442.200867,1001.014099 
	C442.189026,965.688354 442.157074,930.362549 442.171448,895.036804 
	C442.184082,864.044861 442.248627,833.052979 442.616791,801.828125 
	C442.800720,801.629028 442.942352,801.403381 443.966797,801.031616 
	C537.782654,801.021057 631.598572,801.011475 725.414429,800.994629 
	C727.578674,800.994202 729.742981,800.913513 732.636169,800.453491 
	C732.757446,799.138733 732.984558,797.823975 732.984863,796.509216 
	C733.001709,715.212708 733.005676,633.916260 732.957336,552.619751 
	C732.956421,551.085571 732.317078,549.551819 731.050476,547.873413 
	C637.221069,547.860474 543.391724,547.849121 449.562317,547.825562 
	C447.400879,547.825012 445.239532,547.687500 442.916199,547.319946 
	C442.776825,547.136841 442.599792,547.003784 442.223663,546.008423 
	C442.205811,469.526306 442.187317,393.044189 442.179108,316.562073 
	C442.179047,315.734100 442.314026,314.906128 442.679993,313.916229 
	C442.863190,313.776886 442.996185,313.599854 443.991486,313.223633 
	C452.816803,313.204224 461.642151,313.168549 470.467468,313.167999 
	C543.571228,313.163452 616.674988,313.152374 689.778687,313.239410 
	C691.631165,313.241608 693.482422,314.344543 695.092041,315.854034 
	C695.061646,341.018219 695.016479,366.182404 695.047363,391.346497 
	C695.048767,392.521362 695.728821,393.695374 697.013245,394.973022 
	C751.488831,394.982025 805.964355,395.004517 860.439941,394.995850 
	C906.251953,394.988525 952.064026,394.945007 998.261414,394.873199 
	C998.360168,394.792145 998.553040,394.691772 998.541138,394.633453 
	C998.493530,394.401459 998.382202,394.182526 998.202332,393.032043 
	C998.191101,277.533478 998.179626,162.034912 998.173767,46.536339 
	C998.173767,45.704697 998.252441,44.873051 998.547180,43.752827 
	C998.323547,43.529415 998.099915,43.306007 996.956604,43.016998 
	C680.559937,43.011356 364.163269,43.005371 47.766624,43.010559 
	C46.318546,43.010582 44.870464,43.169651 43.000000,43.279179 
	C43.000000,45.375439 43.000000,47.169918 43.000000,48.964397 
	C43.000000,69.624329 42.993675,90.284256 43.001160,110.944183 
	C43.025543,178.254745 43.054966,245.565323 43.126713,313.261292 
	C43.431553,313.272369 43.736389,313.283447 44.967915,313.202209 
	C74.291687,313.231537 103.615456,313.260864 133.171982,313.616852 
	C133.371033,313.800751 133.596619,313.942383 133.968414,314.966797 
	C133.978897,542.795288 133.989929,770.623718 133.987061,998.452209 
	C133.987045,999.882935 133.793671,1001.313660 133.662704,1003.131104 
	C103.332016,1003.131104 73.403206,1003.131104 43.000000,1003.131104 
	C43.000000,1005.503601 43.000000,1007.461182 43.000000,1009.418701 
	C43.000000,1082.583862 42.993889,1155.749023 43.005825,1228.914185 
	C43.007893,1241.578613 43.086384,1254.242920 43.546547,1267.636108 
	C44.861332,1267.757446 46.176105,1267.984863 47.490902,1267.984985 
	C206.090225,1268.000977 364.689545,1268.003052 523.288879,1267.952148 
	C524.786194,1267.951660 526.283264,1267.231201 527.899475,1265.936401 
	C527.909851,1179.455078 527.920715,1092.973755 527.924377,1006.492432 
	C527.924438,1005.661926 527.829041,1004.831360 527.813782,1003.521179 
	C527.640381,1003.177246 527.368896,1003.059692 526.070618,1003.035461 
z"/>
<path fill="#FFFFFF" opacity="1.000000" stroke="none" 
	d="
M1700.531372,1.000000 
	C1701.000000,119.113716 1701.000000,237.227432 1701.000000,355.869080 
	C1729.674316,355.869080 1758.060669,355.869080 1787.000000,355.869080 
	C1787.000000,358.497314 1787.000000,360.607208 1787.000000,362.717102 
	C1787.000000,592.825989 1787.011108,822.934814 1786.908447,1053.043701 
	C1786.906738,1057.055786 1788.150635,1059.717651 1790.908569,1062.539917 
	C1807.145264,1079.156128 1823.182251,1095.968018 1839.241943,1112.756592 
	C1852.422974,1126.535889 1865.535400,1140.380859 1878.690308,1154.185181 
	C1892.534668,1168.712891 1906.399780,1183.221191 1920.244141,1197.748901 
	C1933.399292,1211.553101 1946.536133,1225.374512 1959.686523,1239.183228 
	C1973.181396,1253.353760 1986.729126,1267.474487 2000.165283,1281.700439 
	C2008.796265,1290.838745 2017.267822,1300.127563 2025.905396,1309.674438 
	C1903.312378,1310.000000 1780.624878,1310.000000 1657.468628,1309.531372 
	C1657.000000,1192.809082 1657.000000,1076.555420 1657.000000,959.768982 
	C1627.627930,959.768982 1598.904419,959.768982 1570.250000,959.768982 
	C1570.250000,758.308228 1570.250000,557.381531 1570.250000,355.921326 
	C1599.217896,355.921326 1627.941284,355.921326 1657.000000,355.921326 
	C1657.000000,237.258575 1657.000000,119.129288 1657.000000,1.000000 
	C1671.354248,1.000000 1685.708496,1.000000 1700.531372,1.000000 
z"/>
<path fill="#B7872D" opacity="1.000000" stroke="none" 
	d="
M1656.531372,1.000000 
	C1657.000000,119.129288 1657.000000,237.258575 1657.000000,355.921326 
	C1627.941284,355.921326 1599.217896,355.921326 1570.250000,355.921326 
	C1570.250000,557.381531 1570.250000,758.308228 1570.250000,959.768982 
	C1598.904419,959.768982 1627.627930,959.768982 1657.000000,959.768982 
	C1657.000000,1076.555420 1657.000000,1192.809082 1657.000000,1309.531372 
	C1467.312378,1310.000000 1277.624878,1310.000000 1087.468628,1310.000000 
	C1087.000000,1193.537231 1087.000000,1077.074463 1087.000000,960.078247 
	C1117.059204,960.078247 1146.782471,960.078247 1176.750244,960.078247 
	C1176.750244,758.617859 1176.750244,557.691040 1176.750244,356.230469 
	C1147.094849,356.230469 1117.371582,356.230469 1087.000000,356.230469 
	C1087.000000,237.777756 1087.000000,119.857536 1087.000000,1.468657 
	C1276.687622,1.000000 1466.375122,1.000000 1656.531372,1.000000 
M1613.070923,43.035416 
	C1453.298218,43.023808 1293.525513,43.011665 1133.752808,43.011513 
	C1132.637573,43.011509 1131.522339,43.176605 1130.000000,43.296738 
	C1130.000000,45.386814 1130.000000,47.182465 1130.000000,48.978119 
	C1130.000000,69.803574 1129.993408,90.629021 1130.000977,111.454475 
	C1130.025269,178.594910 1130.054810,245.735352 1130.126587,313.261261 
	C1130.431396,313.272369 1130.736206,313.283447 1131.967651,313.202209 
	C1160.625610,313.231476 1189.283447,313.260712 1218.189209,313.622894 
	C1218.398682,313.811035 1218.637573,313.947876 1219.029663,314.959442 
	C1219.039307,315.292542 1219.057495,315.625610 1219.057495,315.958710 
	C1219.061035,543.356140 1219.063599,770.753540 1219.056274,998.151001 
	C1219.056274,999.604065 1218.918823,1001.057129 1218.817749,1003.061279 
	C1189.815186,1003.061279 1161.103027,1003.061279 1132.000000,1003.061279 
	C1132.000000,1005.595764 1132.000000,1007.562744 1132.000000,1009.529663 
	C1132.000000,1091.159546 1131.998169,1172.789307 1132.005371,1254.419189 
	C1132.005737,1258.582031 1132.086304,1262.744751 1132.546387,1267.636230 
	C1133.861206,1267.757446 1135.176025,1267.984741 1136.490845,1267.984863 
	C1294.423584,1268.000854 1452.356323,1268.003174 1610.289062,1267.952271 
	C1611.786377,1267.951782 1613.283447,1267.231079 1614.899536,1265.936157 
	C1614.909912,1179.454834 1614.920776,1092.973511 1614.924316,1006.492249 
	C1614.924438,1005.661743 1614.828979,1004.831238 1614.813965,1003.521179 
	C1614.640625,1003.177246 1614.369141,1003.059692 1613.070923,1003.035400 
	C1584.757568,1002.994446 1556.444092,1002.953491 1528.034424,1001.992615 
	C1528.022949,999.827393 1528.001343,997.662170 1528.001343,995.496948 
	C1527.999878,770.965088 1528.000977,546.433289 1527.986206,321.901428 
	C1527.985962,319.580872 1527.777954,317.260345 1527.936890,314.140778 
	C1529.811890,313.815674 1531.685425,313.215637 1533.562012,313.206787 
	C1560.372925,313.080231 1587.184204,313.033508 1614.503784,312.913849 
	C1614.597900,312.610748 1614.692017,312.307617 1614.899536,311.073273 
	C1614.909912,222.878494 1614.920654,134.683731 1614.924316,46.488956 
	C1614.924438,45.659569 1614.828979,44.830185 1614.813721,43.521263 
	C1614.640503,43.177330 1614.369019,43.059704 1613.070923,43.035416 
z"/>
<path fill="#FFFFFF" opacity="1.000000" stroke="none" 
	d="
M2283.531250,1.000000 
	C2284.000000,119.118553 2284.000000,237.237106 2284.000000,355.886902 
	C2304.356689,355.886902 2324.413330,355.886902 2344.731689,355.886902 
	C2344.731689,557.444641 2344.731689,758.470886 2344.731689,959.748657 
	C2290.620117,959.748657 2236.691406,959.748657 2182.381104,959.748657 
	C2182.381104,758.781433 2182.381104,557.755005 2182.381104,356.196411 
	C2199.937500,356.196411 2217.662109,356.196411 2236.000000,356.196411 
	C2236.000000,237.756088 2236.000000,119.846703 2236.000000,1.468657 
	C2251.687500,1.000000 2267.375000,1.000000 2283.531250,1.000000 
z"/>
<path fill="#FFFFFF" opacity="1.000000" stroke="none" 
	d="
M2501.468750,1310.000000 
	C2504.464355,1306.035400 2507.792236,1301.941284 2511.416992,1298.129028 
	C2526.395020,1282.375854 2541.498291,1266.741577 2556.486816,1250.997803 
	C2567.454346,1239.477295 2578.299072,1227.839966 2589.226318,1216.280518 
	C2601.297607,1203.510986 2613.414062,1190.783569 2625.485352,1178.013794 
	C2636.412598,1166.454346 2647.290527,1154.848511 2658.217773,1143.289185 
	C2670.289062,1130.519531 2682.401367,1117.788574 2694.477783,1105.023560 
	C2705.752930,1093.105347 2717.020508,1081.179932 2728.255615,1069.224121 
	C2731.191406,1066.099976 2734.053711,1062.901123 2736.814941,1059.622925 
	C2737.484619,1058.827515 2737.794922,1057.606445 2737.952637,1056.534302 
	C2738.144287,1055.229126 2738.000000,1053.874634 2738.000000,1052.541382 
	C2738.000244,822.725830 2738.000000,592.910278 2738.000000,363.094727 
	C2738.000000,360.950195 2738.000000,358.805695 2738.000000,356.000000 
	C2767.211914,356.000000 2796.137207,356.000000 2825.531250,356.000000 
	C2826.000000,673.891174 2826.000000,991.782410 2826.000000,1310.000000 
	C2717.979492,1310.000000 2609.958496,1310.000000 2501.468750,1310.000000 
z"/>
<path fill="#FFFFFF" opacity="1.000000" stroke="none" 
	d="
M1.000000,357.468658 
	C30.788580,357.000000 60.577160,357.000000 90.682297,357.000000 
	C90.682297,557.618469 90.682297,757.917664 90.682297,958.490051 
	C61.180782,958.991699 31.527754,959.495850 1.437362,960.000000 
	C1.000000,759.312439 1.000000,558.624878 1.000000,357.468658 
z"/>
<path fill="#091F3F" opacity="1.000000" stroke="none" 
	d="
M2386.922119,313.386017 
	C2368.927490,313.299255 2350.933105,313.212463 2332.399658,312.849762 
	C2331.721680,312.310425 2331.520020,312.109619 2331.255859,311.971436 
	C2331.211914,311.141510 2331.129395,310.311615 2331.129395,309.481689 
	C2331.134277,221.306915 2331.145508,133.132156 2331.371582,44.384995 
	C2331.780518,43.626469 2331.926514,43.408302 2332.024902,43.158096 
	C2333.188477,43.105522 2334.352051,43.006916 2335.515625,43.006905 
	C2484.329346,43.005581 2633.143066,43.011501 2782.502930,43.297440 
	C2783.130615,43.732330 2783.212646,43.886841 2783.294434,44.041355 
	C2783.251465,55.705456 2783.172852,67.369545 2783.171143,79.033653 
	C2783.159912,154.694595 2783.165283,230.355530 2783.165283,306.016479 
	C2783.165283,308.153870 2783.165527,310.291260 2783.165527,313.200775 
	C2754.501465,313.200775 2726.243896,313.200775 2697.279297,313.213562 
	C2696.216064,313.386597 2696.075928,313.658295 2696.151367,314.041351 
	C2696.100830,316.204010 2696.006348,318.366638 2696.006348,320.529297 
	C2695.999512,475.268341 2696.013428,630.007385 2695.994385,784.746460 
	C2695.984131,868.194885 2695.918213,951.643250 2695.616699,1035.666748 
	C2695.158691,1036.439453 2695.034424,1036.675415 2694.982910,1036.949829 
	C2684.352783,1048.152588 2673.752686,1059.383789 2663.086182,1070.551880 
	C2641.839844,1092.796509 2620.558594,1115.007446 2599.289551,1137.230469 
	C2574.571533,1163.057373 2549.840332,1188.871582 2525.136719,1214.712402 
	C2508.600098,1232.010498 2492.102295,1249.345581 2474.833984,1266.829590 
	C2335.329346,1266.996582 2196.577637,1266.997314 2057.826172,1267.007812 
	C2055.497559,1267.008057 2053.168945,1267.127319 2050.840332,1267.191040 
	C2030.927124,1246.407104 2011.039307,1225.598999 1991.091797,1204.848022 
	C1978.398560,1191.643799 1965.542480,1178.595825 1952.891602,1165.351318 
	C1931.964966,1143.443237 1911.187378,1121.392944 1890.265869,1099.479980 
	C1875.358521,1083.866211 1860.295044,1068.401733 1845.350342,1052.823730 
	C1840.639404,1047.913208 1836.020508,1042.909302 1831.519531,1037.806885 
	C1830.635620,1036.804810 1830.313599,1035.185425 1830.052734,1033.790771 
	C1829.811646,1032.502808 1830.000000,1031.134277 1830.000000,1029.801270 
	C1830.000122,793.689087 1830.000122,557.576904 1829.998779,321.464722 
	C1829.998657,319.298706 1829.979004,317.132690 1829.884644,314.258667 
	C1829.591675,313.206879 1829.304688,313.120026 1828.939819,313.290131 
	C1800.476318,313.290131 1772.012939,313.290131 1742.797852,313.290131 
	C1742.797852,223.476868 1742.797852,134.222351 1742.875244,44.272949 
	C1743.010010,43.412857 1743.067139,43.247643 1743.124390,43.082428 
	C1743.790039,43.055798 1744.455688,43.005817 1745.121338,43.005836 
	C1892.743042,43.010571 2040.364868,43.018810 2188.479492,43.535774 
	C2188.973389,133.690414 2188.974609,223.336227 2188.976074,312.982025 
	C2172.647949,313.062531 2156.320068,313.143036 2139.318359,313.278687 
	C2138.319580,313.498779 2138.233398,313.746765 2138.385742,314.077911 
	C2138.312500,315.572632 2138.175049,317.067322 2138.174805,318.562042 
	C2138.165527,536.714783 2138.166260,754.867493 2138.168213,973.020203 
	C2138.168213,973.686646 2138.193848,974.353027 2138.228516,975.723999 
	C2138.386719,976.757385 2138.628662,976.963318 2138.975342,977.046143 
	C2146.383789,984.883240 2153.692871,992.818787 2161.288818,1000.469604 
	C2162.707520,1001.898376 2165.274170,1002.893372 2167.313477,1002.897339 
	C2231.056641,1003.022644 2294.800049,1003.017578 2358.543213,1002.916016 
	C2360.474854,1002.912903 2362.944580,1002.207886 2364.246094,1000.910217 
	C2371.880371,993.298645 2379.241455,985.413269 2387.080566,977.224487 
	C2387.771729,976.590088 2387.843262,976.294617 2387.680908,975.942444 
	C2387.732178,974.445007 2387.828125,972.947510 2387.828125,971.450073 
	C2387.834717,753.630005 2387.834473,535.809998 2387.832275,317.989929 
	C2387.832031,316.990387 2387.796143,315.990845 2387.721191,314.317627 
	C2387.500977,313.319153 2387.252930,313.233185 2386.922119,313.386017 
z"/>
<path fill="#504645" opacity="1.000000" stroke="none" 
	d="
M2051.170410,1267.460938 
	C2053.168945,1267.127319 2055.497559,1267.008057 2057.826172,1267.007812 
	C2196.577637,1266.997314 2335.329346,1266.996582 2474.551270,1267.005493 
	C2473.465820,1267.344116 2471.909424,1267.958862 2470.353271,1267.959351 
	C2331.892578,1268.003296 2193.431885,1268.000854 2054.971191,1267.989014 
	C2053.814453,1267.988892 2052.657471,1267.820557 2051.170410,1267.460938 
z"/>
<path fill="#504645" opacity="1.000000" stroke="none" 
	d="
M2189.318848,312.733093 
	C2188.974609,223.336227 2188.973389,133.690414 2188.939453,43.587151 
	C2189.271484,44.470089 2189.953613,45.810303 2189.954590,47.150906 
	C2190.004395,134.611099 2190.000977,222.071320 2189.985840,309.531525 
	C2189.985596,310.515778 2189.774170,311.499939 2189.318848,312.733093 
z"/>
<path fill="#85673D" opacity="1.000000" stroke="none" 
	d="
M1742.931641,43.104534 
	C1743.067139,43.247643 1743.010010,43.412857 1742.829102,43.809605 
	C1742.617798,43.817379 1742.506470,43.598457 1742.458984,43.366486 
	C1742.447144,43.307964 1742.640015,43.207703 1742.931641,43.104534 
z"/>
<path fill="#222B42" opacity="1.000000" stroke="none" 
	d="
M2695.193604,1036.873413 
	C2695.034424,1036.675415 2695.158691,1036.439453 2695.521973,1036.127197 
	C2695.795898,1036.347168 2695.701416,1036.608643 2695.193604,1036.873413 
z"/>
<path fill="#85673D" opacity="1.000000" stroke="none" 
	d="
M2387.509766,976.084229 
	C2387.843262,976.294617 2387.771729,976.590088 2387.245605,976.937378 
	C2387.036865,976.737061 2387.141357,976.463806 2387.509766,976.084229 
z"/>
<path fill="#85673D" opacity="1.000000" stroke="none" 
	d="
M2138.931641,976.827515 
	C2138.628662,976.963318 2138.386719,976.757385 2138.284180,976.185181 
	C2138.585938,976.098206 2138.775635,976.320557 2138.931641,976.827515 
z"/>
<path fill="#333544" opacity="1.000000" stroke="none" 
	d="
M2331.781250,43.172020 
	C2331.926514,43.408302 2331.780518,43.626469 2331.421387,43.921059 
	C2331.097168,43.663944 2331.190918,43.382755 2331.781250,43.172020 
z"/>
<path fill="#85673D" opacity="1.000000" stroke="none" 
	d="
M2783.420654,43.897110 
	C2783.212646,43.886841 2783.130615,43.732330 2782.962402,43.330223 
	C2783.099854,43.306038 2783.323242,43.529449 2783.420654,43.897110 
z"/>
<path fill="#85673D" opacity="1.000000" stroke="none" 
	d="
M2696.330566,313.950928 
	C2696.075928,313.658295 2696.216064,313.386597 2696.816895,313.258057 
	C2696.934814,313.534882 2696.750732,313.725098 2696.330566,313.950928 
z"/>
<path fill="#85673D" opacity="1.000000" stroke="none" 
	d="
M2387.003174,313.532837 
	C2387.252930,313.233185 2387.500977,313.319153 2387.640137,313.861450 
	C2387.399902,313.996307 2387.223145,313.863220 2387.003174,313.532837 
z"/>
<path fill="#85673D" opacity="1.000000" stroke="none" 
	d="
M2138.532715,313.996948 
	C2138.233398,313.746765 2138.319580,313.498779 2138.862061,313.359497 
	C2138.996094,313.599365 2138.862793,313.776337 2138.532715,313.996948 
z"/>
<path fill="#85673D" opacity="1.000000" stroke="none" 
	d="
M1829.056030,313.453461 
	C1829.304688,313.120026 1829.591675,313.206879 1829.824707,313.796112 
	C1829.596680,313.942230 1829.371216,313.800629 1829.056030,313.453461 
z"/>
<path fill="#333544" opacity="1.000000" stroke="none" 
	d="
M2331.227539,312.226624 
	C2331.520020,312.109619 2331.721680,312.310425 2331.936279,312.776581 
	C2331.740967,312.813477 2331.469971,312.647644 2331.227539,312.226624 
z"/>
<path fill="#091F3F" opacity="1.000000" stroke="none" 
	d="
M43.082451,312.875885 
	C43.054966,245.565323 43.025543,178.254745 43.001160,110.944183 
	C42.993675,90.284256 43.000000,69.624329 43.000000,48.964397 
	C43.000000,47.169918 43.000000,45.375439 43.000000,43.279179 
	C44.870464,43.169651 46.318546,43.010582 47.766624,43.010559 
	C364.163269,43.005371 680.559937,43.011356 997.502686,43.297432 
	C998.130676,43.732376 998.212585,43.886894 998.294434,44.041405 
	C998.252441,44.873051 998.173767,45.704697 998.173767,46.536339 
	C998.179626,162.034912 998.191101,277.533478 998.124878,393.726929 
	C997.990356,394.587036 997.933228,394.752258 997.876038,394.917480 
	C952.064026,394.945007 906.251953,394.988525 860.439941,394.995850 
	C805.964355,395.004517 751.488831,394.982025 696.520752,394.463959 
	C696.018860,369.391296 696.023193,344.827667 695.971497,320.264160 
	C695.967773,318.487030 695.556213,316.710754 695.334229,314.934113 
	C693.482422,314.344543 691.631165,313.241608 689.778687,313.239410 
	C616.674988,313.152374 543.571228,313.163452 470.467468,313.167999 
	C461.642151,313.168549 452.816803,313.204224 443.317688,313.278809 
	C442.319275,313.499176 442.233337,313.747223 442.385986,314.078156 
	C442.314026,314.906128 442.179047,315.734100 442.179108,316.562073 
	C442.187317,393.044189 442.205811,469.526306 442.278809,546.682251 
	C442.333984,547.356018 442.643890,547.664001 442.643890,547.664001 
	C442.643890,547.664001 443.078125,547.613892 443.078125,547.613892 
	C445.239532,547.687500 447.400879,547.825012 449.562317,547.825562 
	C543.391724,547.849121 637.221069,547.860474 731.521912,548.412842 
	C731.995544,586.107178 732.010681,623.262146 731.996826,660.417114 
	C731.979309,707.234863 731.938110,754.052612 731.907227,800.870361 
	C729.742981,800.913513 727.578674,800.994202 725.414429,800.994629 
	C631.598572,801.011475 537.782654,801.021057 443.258636,801.115479 
	C442.206635,801.408875 442.119904,801.696106 442.290222,802.061035 
	C442.248627,833.052979 442.184082,864.044861 442.171448,895.036804 
	C442.157074,930.362549 442.189026,965.688354 442.213562,1001.721191 
	C442.386658,1002.784058 442.658325,1002.924133 443.041351,1002.848450 
	C470.717773,1002.910828 498.394196,1002.973145 526.625671,1003.274353 
	C527.332703,1003.733582 527.531860,1003.896118 527.778198,1004.000854 
	C527.829041,1004.831360 527.924438,1005.661926 527.924377,1006.492432 
	C527.920715,1092.973755 527.909851,1179.455078 527.390259,1266.434692 
	C525.882019,1266.955322 524.883057,1266.997192 523.884094,1266.997192 
	C364.964386,1267.000122 206.044708,1267.000244 47.125008,1266.996216 
	C45.793198,1266.996216 44.461388,1266.938232 43.129578,1266.907349 
	C43.086384,1254.242920 43.007893,1241.578613 43.005825,1228.914185 
	C42.993889,1155.749023 43.000000,1082.583862 43.000000,1009.418701 
	C43.000000,1007.461182 43.000000,1005.503601 43.000000,1003.131104 
	C73.403206,1003.131104 103.332016,1003.131104 133.662704,1003.131104 
	C133.793671,1001.313660 133.987045,999.882935 133.987061,998.452209 
	C133.989929,770.623718 133.978897,542.795288 133.884521,314.258698 
	C133.591248,313.206757 133.304108,313.119965 132.939224,313.290222 
	C103.615456,313.260864 74.291687,313.231537 44.273029,313.124817 
	C43.412914,312.990234 43.247684,312.933044 43.082451,312.875885 
z"/>
<path fill="#504645" opacity="1.000000" stroke="none" 
	d="
M43.338062,1267.271729 
	C44.461388,1266.938232 45.793198,1266.996216 47.125008,1266.996216 
	C206.044708,1267.000244 364.964386,1267.000122 523.884094,1266.997192 
	C524.883057,1266.997192 525.882019,1266.955322 527.330750,1266.889893 
	C526.283264,1267.231201 524.786194,1267.951660 523.288879,1267.952148 
	C364.689545,1268.003052 206.090225,1268.000977 47.490902,1267.984985 
	C46.176105,1267.984863 44.861332,1267.757446 43.338062,1267.271729 
z"/>
<path fill="#504645" opacity="1.000000" stroke="none" 
	d="
M732.271729,800.661926 
	C731.938110,754.052612 731.979309,707.234863 731.996826,660.417114 
	C732.010681,623.262146 731.995544,586.107178 731.984497,548.484985 
	C732.317078,549.551819 732.956421,551.085571 732.957336,552.619751 
	C733.005676,633.916260 733.001709,715.212708 732.984863,796.509216 
	C732.984558,797.823975 732.757446,799.138733 732.271729,800.661926 
z"/>
<path fill="#504645" opacity="1.000000" stroke="none" 
	d="
M695.213135,315.394073 
	C695.556213,316.710754 695.967773,318.487030 695.971497,320.264160 
	C696.023193,344.827667 696.018860,369.391296 696.060547,394.412354 
	C695.728821,393.695374 695.048767,392.521362 695.047363,391.346497 
	C695.016479,366.182404 695.061646,341.018219 695.213135,315.394073 
z"/>
<path fill="#85673D" opacity="1.000000" stroke="none" 
	d="
M998.420776,43.897118 
	C998.212585,43.886894 998.130676,43.732376 997.962524,43.330231 
	C998.099915,43.306007 998.323547,43.529415 998.420776,43.897118 
z"/>
<path fill="#85673D" opacity="1.000000" stroke="none" 
	d="
M43.104584,313.068604 
	C43.247684,312.933044 43.412914,312.990234 43.809685,313.170959 
	C43.736389,313.283447 43.431553,313.272369 43.104584,313.068604 
z"/>
<path fill="#222B42" opacity="1.000000" stroke="none" 
	d="
M527.796021,1003.760986 
	C527.531860,1003.896118 527.332703,1003.733582 527.089966,1003.340820 
	C527.368896,1003.059692 527.640381,1003.177246 527.796021,1003.760986 
z"/>
<path fill="#85673D" opacity="1.000000" stroke="none" 
	d="
M442.950958,1002.669189 
	C442.658325,1002.924133 442.386658,1002.784058 442.258087,1002.183350 
	C442.535095,1002.065369 442.725311,1002.249146 442.950958,1002.669189 
z"/>
<path fill="#85673D" opacity="1.000000" stroke="none" 
	d="
M442.453491,801.944580 
	C442.119904,801.696106 442.206635,801.408875 442.796082,801.175293 
	C442.942352,801.403381 442.800720,801.629028 442.453491,801.944580 
z"/>
<path fill="#85673D" opacity="1.000000" stroke="none" 
	d="
M442.997162,547.466919 
	C443.078125,547.613892 442.643890,547.664001 442.643890,547.664001 
	C442.643890,547.664001 442.333984,547.356018 442.359558,547.138428 
	C442.599792,547.003784 442.776825,547.136841 442.997162,547.466919 
z"/>
<path fill="#85673D" opacity="1.000000" stroke="none" 
	d="
M998.068726,394.895325 
	C997.933228,394.752258 997.990356,394.587036 998.170959,394.190308 
	C998.382202,394.182526 998.493530,394.401459 998.541138,394.633453 
	C998.553040,394.691772 998.360168,394.792145 998.068726,394.895325 
z"/>
<path fill="#85673D" opacity="1.000000" stroke="none" 
	d="
M442.533020,313.997192 
	C442.233337,313.747223 442.319275,313.499176 442.861450,313.359558 
	C442.996185,313.599854 442.863190,313.776886 442.533020,313.997192 
z"/>
<path fill="#85673D" opacity="1.000000" stroke="none" 
	d="
M133.055603,313.453552 
	C133.304108,313.119965 133.591248,313.206757 133.824692,313.796143 
	C133.596619,313.942383 133.371033,313.800751 133.055603,313.453552 
z"/>
<path fill="#091F3F" opacity="1.000000" stroke="none" 
	d="
M1613.995483,312.967560 
	C1587.184204,313.033508 1560.372925,313.080231 1533.562012,313.206787 
	C1531.685425,313.215637 1529.811890,313.815674 1527.584473,314.889069 
	C1527.154785,317.462280 1527.010132,319.287201 1527.009766,321.112152 
	C1526.997681,374.092926 1527.000000,427.073730 1527.000000,480.054504 
	C1527.000000,652.325378 1526.996216,824.596191 1527.046875,996.867065 
	C1527.047485,998.882324 1527.753784,1000.897400 1528.130737,1002.912537 
	C1556.444092,1002.953491 1584.757568,1002.994446 1613.625854,1003.274292 
	C1614.332764,1003.733459 1614.531860,1003.895996 1614.778198,1004.000732 
	C1614.828979,1004.831238 1614.924438,1005.661743 1614.924316,1006.492249 
	C1614.920776,1092.973511 1614.909912,1179.454834 1614.390381,1266.434570 
	C1612.715576,1266.955200 1611.550049,1266.997192 1610.384521,1266.997314 
	C1452.298096,1267.000244 1294.211548,1267.000244 1136.125122,1266.996338 
	C1134.793335,1266.996338 1133.461426,1266.938477 1132.129639,1266.907715 
	C1132.086304,1262.744751 1132.005737,1258.582031 1132.005371,1254.419189 
	C1131.998169,1172.789307 1132.000000,1091.159546 1132.000000,1009.529663 
	C1132.000000,1007.562744 1132.000000,1005.595764 1132.000000,1003.061279 
	C1161.103027,1003.061279 1189.815186,1003.061279 1218.817749,1003.061279 
	C1218.918823,1001.057129 1219.056274,999.604065 1219.056274,998.151001 
	C1219.063599,770.753540 1219.061035,543.356140 1219.057495,315.958710 
	C1219.057495,315.625610 1219.039307,315.292542 1218.933472,314.246643 
	C1218.538696,313.452576 1218.239990,313.371277 1217.941406,313.289978 
	C1189.283447,313.260712 1160.625610,313.231476 1131.272827,313.124786 
	C1130.412842,312.990173 1130.247559,312.932983 1130.082275,312.875793 
	C1130.054810,245.735352 1130.025269,178.594910 1130.000977,111.454475 
	C1129.993408,90.629021 1130.000000,69.803574 1130.000000,48.978119 
	C1130.000000,47.182465 1130.000000,45.386814 1130.000000,43.296738 
	C1131.522339,43.176605 1132.637573,43.011509 1133.752808,43.011513 
	C1293.525513,43.011665 1453.298218,43.023808 1613.625732,43.274296 
	C1614.332520,43.733604 1614.531738,43.896145 1614.778198,44.000797 
	C1614.828979,44.830185 1614.924438,45.659569 1614.924316,46.488956 
	C1614.920654,134.683731 1614.909912,222.878494 1614.664551,311.656677 
	C1614.213623,312.440094 1614.068970,312.682587 1613.995483,312.967560 
z"/>
<path fill="#504645" opacity="1.000000" stroke="none" 
	d="
M1528.082520,1002.452576 
	C1527.753784,1000.897400 1527.047485,998.882324 1527.046875,996.867065 
	C1526.996216,824.596191 1527.000000,652.325378 1527.000000,480.054504 
	C1527.000000,427.073730 1526.997681,374.092926 1527.009766,321.112152 
	C1527.010132,319.287201 1527.154785,317.462280 1527.449463,315.288574 
	C1527.777954,317.260345 1527.985962,319.580872 1527.986206,321.901428 
	C1528.000977,546.433289 1527.999878,770.965088 1528.001343,995.496948 
	C1528.001343,997.662170 1528.022949,999.827393 1528.082520,1002.452576 
z"/>
<path fill="#504645" opacity="1.000000" stroke="none" 
	d="
M1132.338013,1267.271973 
	C1133.461426,1266.938477 1134.793335,1266.996338 1136.125122,1266.996338 
	C1294.211548,1267.000244 1452.298096,1267.000244 1610.384521,1266.997314 
	C1611.550049,1266.997192 1612.715576,1266.955200 1614.330811,1266.889648 
	C1613.283447,1267.231079 1611.786377,1267.951782 1610.289062,1267.952271 
	C1452.356323,1268.003174 1294.423584,1268.000854 1136.490845,1267.984863 
	C1135.176025,1267.984741 1133.861206,1267.757446 1132.338013,1267.271973 
z"/>
<path fill="#222B42" opacity="1.000000" stroke="none" 
	d="
M1614.795898,43.761032 
	C1614.531738,43.896145 1614.332520,43.733604 1614.090088,43.340782 
	C1614.369019,43.059704 1614.640503,43.177330 1614.795898,43.761032 
z"/>
<path fill="#222B42" opacity="1.000000" stroke="none" 
	d="
M1614.796143,1003.760986 
	C1614.531860,1003.895996 1614.332764,1003.733459 1614.090210,1003.340759 
	C1614.369141,1003.059692 1614.640625,1003.177246 1614.796143,1003.760986 
z"/>
<path fill="#85673D" opacity="1.000000" stroke="none" 
	d="
M1218.065308,313.456451 
	C1218.239990,313.371277 1218.538696,313.452576 1218.871582,313.783661 
	C1218.637573,313.947876 1218.398682,313.811035 1218.065308,313.456451 
z"/>
<path fill="#222B42" opacity="1.000000" stroke="none" 
	d="
M1614.249634,312.940704 
	C1614.068970,312.682587 1614.213623,312.440094 1614.607910,312.122314 
	C1614.692017,312.307617 1614.597900,312.610748 1614.249634,312.940704 
z"/>
<path fill="#85673D" opacity="1.000000" stroke="none" 
	d="
M1130.104492,313.068542 
	C1130.247559,312.932983 1130.412842,312.990173 1130.809570,313.170959 
	C1130.736206,313.283447 1130.431396,313.272369 1130.104492,313.068542 
z"/>
</svg>