<svg version="1.1" id="Layer_1" xmlns="http://www.w3.org/2000/svg" xmlns:xlink="http://www.w3.org/1999/xlink" x="0px" y="0px"
	 width="100%"  viewBox="110 110 180 180" enable-background="new 0 0 400 400" xml:space="preserve">
<path fill="#000000" opacity="1.000000" stroke="none" 
	d="
M136.161224,171.039093 
	C148.966934,171.032867 161.298691,171.039856 173.630386,171.020630 
	C176.829788,171.015640 179.500412,171.103531 179.511673,175.653229 
	C179.522797,180.141708 177.040710,180.328064 173.731934,180.315659 
	C157.400879,180.254395 141.069489,180.275497 124.738228,180.278336 
	C121.697868,180.278854 118.086784,180.552826 117.186096,176.964417 
	C116.150688,172.839264 115.547020,168.368439 119.793938,165.095734 
	C129.558701,157.570938 139.259354,149.962845 148.975479,142.375061 
	C155.484894,137.291565 161.976242,132.184937 169.699997,126.128632 
	C164.235367,126.128632 160.301559,126.127563 156.367752,126.128853 
	C145.535797,126.132401 134.703537,126.184120 123.872070,126.112778 
	C120.555847,126.090935 116.583107,127.168343 116.607574,121.367935 
	C116.631042,115.802505 120.482254,116.907204 123.578217,116.891335 
	C139.575714,116.809288 155.573944,116.832848 171.571747,116.878311 
	C174.513184,116.886673 178.350311,116.345123 178.993713,120.192268 
	C179.669373,124.232285 180.850418,128.688141 176.432526,132.074448 
	C161.360962,143.626755 146.435455,155.369659 131.462723,167.050781 
	C130.331635,167.933197 128.782501,168.443741 128.415878,170.487717 
	C130.786987,171.440201 133.279388,170.898773 136.161224,171.039093 
z"/>
<path fill="#000000" opacity="1.000000" stroke="none" 
	d="
M281.351807,171.191299 
	C276.045624,177.771194 269.393860,180.606354 261.398163,180.268570 
	C253.937454,179.953400 246.396454,181.265930 239.018356,179.363098 
	C228.840012,176.738068 222.731598,168.804352 222.664810,158.235443 
	C222.623764,151.740540 222.617706,145.244873 222.667145,138.750076 
	C222.754486,127.278702 230.593521,118.126030 242.040512,117.159485 
	C249.808716,116.503578 257.717529,116.512848 265.490021,117.137955 
	C277.680054,118.118340 285.293518,126.987747 285.343170,139.242996 
	C285.367493,145.238434 285.180481,151.240097 285.398071,157.227707 
	C285.580933,162.258286 284.430939,166.781265 281.351807,171.191299 
M231.354889,157.999527 
	C232.273575,166.604599 236.768219,170.892960 245.283386,171.037643 
	C251.432236,171.142120 257.589142,171.160004 263.734772,170.968994 
	C271.394409,170.730942 276.462158,165.608734 276.640656,157.963287 
	C276.788055,151.649429 276.786682,145.326691 276.641052,139.012741 
	C276.463898,131.332809 271.474670,126.381943 263.683350,126.177734 
	C257.370270,126.012268 251.047394,126.017578 244.733154,126.150330 
	C236.494095,126.323532 231.463791,131.439743 231.351944,139.642426 
	C231.272629,145.459900 231.343002,151.279404 231.354889,157.999527 
z"/>
<path fill="#000000" opacity="1.000000" stroke="none" 
	d="
M119.878632,233.112137 
	C125.006233,225.521332 132.053360,222.486603 140.629471,222.751663 
	C147.937027,222.977554 155.294037,221.930908 162.549728,223.494247 
	C172.328094,225.601166 178.966354,233.241226 179.346817,243.148407 
	C179.602020,249.793213 179.550781,256.452911 179.511963,263.105255 
	C179.437897,275.798431 172.743988,284.231812 160.237396,285.778961 
	C151.705338,286.834412 142.937271,287.053406 134.370956,285.423370 
	C124.843834,283.610474 118.226845,277.253998 117.074173,267.833191 
	C115.984093,258.924072 116.378937,249.870407 116.985916,240.896072 
	C117.163605,238.268875 118.263634,235.734741 119.878632,233.112137 
M170.715012,264.051910 
	C170.722687,257.721985 170.814072,251.390778 170.715561,245.062515 
	C170.607269,238.104782 166.798676,233.319397 159.914307,232.167480 
	C152.186386,230.874420 144.307755,231.452164 136.586014,232.104355 
	C129.787766,232.678543 125.673721,237.896103 125.418312,244.757294 
	C125.183014,251.078293 125.168930,257.423187 125.423141,263.742828 
	C125.746681,271.786011 130.854019,276.716064 138.785141,276.881775 
	C144.945816,277.010468 151.113556,277.019623 157.273972,276.887085 
	C165.090515,276.718964 169.448380,272.741974 170.715012,264.051910 
z"/>
<path fill="#000000" opacity="1.000000" stroke="none" 
	d="
M256.442688,263.736603 
	C254.549255,261.070953 253.211624,261.832886 251.579910,263.717987 
	C246.028122,270.131836 240.353790,276.439941 234.706009,282.770325 
	C231.133743,286.774384 227.425064,287.367249 222.336349,284.783966 
	C222.277634,282.686249 223.948441,281.624573 225.125366,280.304230 
	C231.766998,272.853119 238.367538,265.362701 245.150253,258.041504 
	C247.528305,255.474686 247.730148,253.648361 245.188568,250.945297 
	C238.466522,243.796127 232.041229,236.367371 225.523346,229.027237 
	C224.226608,227.566940 222.497452,226.361343 222.297562,224.168777 
	C227.240875,221.446671 231.135712,222.223816 234.922028,226.501862 
	C241.077469,233.456772 247.295456,240.356323 253.994278,247.846359 
	C260.637726,240.429657 267.089203,233.552307 273.146393,226.343597 
	C276.796234,221.999863 280.899658,222.209106 285.822693,223.537369 
	C285.496521,226.564331 283.404541,228.118546 281.823578,229.902771 
	C275.426331,237.122406 269.029327,244.346191 262.447510,251.396057 
	C260.358063,253.634109 260.572449,255.183151 262.482147,257.291229 
	C268.848633,264.319061 275.110962,271.441895 281.362854,278.572510 
	C282.977753,280.414398 285.081024,281.927399 285.781250,284.453552 
	C281.640015,287.321350 277.284088,286.957397 273.975494,283.321106 
	C268.153015,276.921875 262.423035,270.438477 256.442688,263.736603 
z"/>
</svg>